<?xml version="1.0" encoding="UTF-8" standalone="no"?><!DOCTYPE svg PUBLIC "-//W3C//DTD SVG 1.1//EN" "http://www.w3.org/Graphics/SVG/1.1/DTD/svg11.dtd"><svg width="100%" height="100%" viewBox="0 0 61 61" version="1.1" xmlns="http://www.w3.org/2000/svg" xmlns:xlink="http://www.w3.org/1999/xlink" xml:space="preserve" style="fill-rule:evenodd;clip-rule:evenodd;stroke-linejoin:round;stroke-miterlimit:1.41421;"><path d="M20.055,33.687c-0.493,-0.817 -0.929,-1.668 -1.303,-2.547c-0.965,-2.263 -1.517,-4.695 -1.647,-7.151c-0.122,-2.3 0.126,-4.616 0.722,-6.839c0.577,-2.152 1.478,-4.215 2.662,-6.102c1.968,-3.136 4.71,-5.784 7.915,-7.637c1.883,-1.089 3.924,-1.902 6.041,-2.403c1.985,-0.469 4.035,-0.663 6.072,-0.568c2.24,0.105 4.463,0.561 6.559,1.362c1.717,0.656 3.344,1.542 4.825,2.632c0.798,0.587 1.549,1.234 2.256,1.927c0.065,0.064 0.13,0.129 0.194,0.194c0.694,0.707 1.34,1.458 1.927,2.257c1.09,1.48 1.976,3.108 2.632,4.825c0.801,2.095 1.257,4.318 1.362,6.558c0.095,2.038 -0.099,4.087 -0.568,6.072c-0.501,2.117 -1.314,4.158 -2.402,6.041c-1.854,3.205 -4.502,5.947 -7.638,7.915c-1.887,1.184 -3.949,2.086 -6.102,2.662c-2.223,0.596 -4.539,0.844 -6.838,0.722c-2.456,-0.129 -4.889,-0.682 -7.152,-1.647c-0.879,-0.374 -1.73,-0.81 -2.547,-1.303l-18.589,18.589c-0.058,0.055 -0.115,0.112 -0.175,0.167c-0.119,0.108 -0.244,0.21 -0.374,0.306c-0.389,0.289 -0.82,0.519 -1.275,0.682c-0.608,0.218 -1.258,0.314 -1.903,0.282c-0.564,-0.027 -1.122,-0.153 -1.644,-0.369c-0.447,-0.185 -0.866,-0.436 -1.24,-0.743c-0.374,-0.307 -0.703,-0.67 -0.972,-1.072c-0.403,-0.604 -0.67,-1.296 -0.777,-2.015c-0.107,-0.719 -0.052,-1.459 0.159,-2.154c0.164,-0.54 0.421,-1.052 0.758,-1.505c0.096,-0.13 0.198,-0.255 0.306,-0.374c0.055,-0.06 0.112,-0.117 0.167,-0.175l18.589,-18.589Zm27.178,-20.31c-0.385,-0.378 -0.795,-0.728 -1.231,-1.045c-0.734,-0.533 -1.537,-0.969 -2.382,-1.298c-1.07,-0.417 -2.205,-0.661 -3.351,-0.735c-1.124,-0.073 -2.253,0.018 -3.353,0.256c-1.354,0.292 -2.658,0.823 -3.84,1.545c-0.95,0.58 -1.818,1.286 -2.591,2.086c-0.509,0.527 -0.976,1.098 -1.387,1.705c-0.894,1.321 -1.548,2.806 -1.885,4.367c-0.247,1.143 -0.337,2.32 -0.247,3.487c0.096,1.235 0.387,2.455 0.88,3.592c0.532,1.226 1.295,2.345 2.24,3.289c0.945,0.945 2.063,1.708 3.289,2.24c1.158,0.502 2.402,0.795 3.66,0.885c1.163,0.083 2.339,-0.009 3.477,-0.265c1.091,-0.244 2.143,-0.637 3.131,-1.16c2.176,-1.151 3.997,-2.955 5.206,-5.094c0.608,-1.076 1.048,-2.247 1.312,-3.453c0.23,-1.049 0.316,-2.129 0.261,-3.2c-0.06,-1.148 -0.294,-2.287 -0.696,-3.363c-0.326,-0.869 -0.765,-1.696 -1.306,-2.45c-0.313,-0.438 -0.66,-0.849 -1.034,-1.236c-0.051,-0.051 -0.102,-0.103 -0.153,-0.153Z" style="fill:#fff;"/></svg>